<svg viewBox="0 0 23 16" id="icon-vkontakte">
  <path d="M.07 3.9927c0-.6219.4232-.9572 1.2694-1.006l3.261.0183c.2189 0 .3648.0915.4377.2744.3356.9145.7113 1.704 1.1271 2.3685.4158.6645.9593 1.4296 1.6305 2.2953.0583.1097.1532.1646.2845.1646.1021 0 .1824-.0427.2407-.128l.0657-.2012.0219-3.1641c0-.2195-.062-.3658-.186-.439-.124-.0731-.3539-.128-.6894-.1646-.2627-.0365-.394-.1707-.394-.4023 0-.0488.0073-.0854.0219-.1098C7.4674 2.7064 8.3428 2.31 9.7873 2.31l1.2256-.0183c.5544 0 1.014.1159 1.3787.3476.3648.2316.5472.5974.5472 1.0973v4.1517c.1021.061.1969.0915.2845.0915.2188 0 .4085-.1098.569-.3293 1.605-1.8777 2.4731-3.1335 2.6044-3.7676 0-.0122.0146-.0426.0438-.0914.1021-.183.2699-.3414.5033-.4756.2335-.134.4377-.2255.6128-.2743.0584-.0244.124-.0366.197-.0366h3.3923l.2188.0183c.2918 0 .518.1159.6785.3475a.63.63 0 0 1 .1203.2378c.0219.0853.0365.1707.0438.256.0073.0854.0109.1342.0109.1464v.128c-.1021.4999-.3611 1.0333-.7769 1.6003-.4158.567-.9447 1.1797-1.5867 1.838-.642.6585-1.0432 1.0913-1.2037 1.2986-.1313.1463-.197.2805-.197.4024 0 .0975.0584.2073.1751.3292l3.1953 3.3653c.1751.195.2626.4084.2626.6401 0 .2804-.1313.5121-.3939.695-.2626.1829-.5763.2865-.9411.3109l-.372.0183h-3.3266a.7942.7942 0 0 0-.0876.0091.8022.8022 0 0 1-.0875.0092c-.321 0-.6201-.1158-.8973-.3475-.1022-.0976-.7879-.8169-2.0573-2.1582-.0729-.0853-.1751-.1646-.3064-.2377-.0583.1951-.1349.4755-.2298.8413a57.6517 57.6517 0 0 1-.2079.7864l-.0656.3109c-.1459.4268-.4523.6829-.9192.7682l-.3064.0183H9.7435c-1.211 0-2.4184-.4633-3.622-1.39-1.2038-.9267-2.2871-2.1246-3.25-3.5939C1.9084 8.184 1.0111 6.474.1794 4.5231c-.073-.1585-.1094-.3354-.1094-.5304Zm13.1533 4.737c-.3064 0-.5836-.0702-.8317-.2104-.248-.1402-.372-.3323-.372-.5761V3.7366c0-.2439-.073-.4176-.2189-.5212-.1459-.1037-.4012-.1555-.766-.1555l-1.2474.0366c-.6274 0-1.1016.0914-1.4226.2743.642.256.963.6706.963 1.2437v3.219c-.0292.3048-.1751.5578-.4377.759-.2627.2011-.5545.3017-.8755.3017-.4377 0-.7732-.1768-1.0067-.5304-1.138-1.4387-1.9843-2.8043-2.5387-4.0968l-.197-.4755-2.9108-.0183c-.1896 0-.2954.0091-.3173.0274-.0219.0183-.0328.0701-.0328.1555 0 .1097.0146.2256.0437.3475l.4596 1.0242c1.2256 2.6459 2.557 4.7308 3.9941 6.255 1.4372 1.5241 2.8488 2.2861 4.2349 2.2861h2.1885c.0876 0 .1532-.0213.197-.064.0438-.0426.0803-.125.1094-.2469l.0438-.1829.4158-1.6094c.1168-.2195.2189-.3658.3064-.439.1605-.1341.3502-.2012.5691-.2012.3501 0 .7076.1768 1.0724.5304l1.8602 1.9753c.1167.1585.2408.2377.3721.2377h3.6111c.4377 0 .6566-.0914.6566-.2743 0-.061-.0219-.1219-.0657-.1829l-3.1734-3.3104c-.248-.256-.3721-.5304-.3721-.823 0-.2926.1168-.573.3502-.8413.1897-.2439.5581-.6493 1.1052-1.2163.5472-.567 1.025-1.0973 1.4335-1.5911.4086-.4939.6785-.942.8098-1.3443l.0656-.2378c-.0145-.0244-.0218-.064-.0218-.1189 0-.0548-.0073-.1005-.0219-.1371h-3.436c-.2189.0731-.394.1829-.5253.3292l-.1313.3475c-.3648.8413-1.3204 2.1399-2.867 3.8956-.3064.2439-.6639.3658-1.0724.3658Z"/>
</svg>
